<?xml version="1.0" standalone="no"?>
<!DOCTYPE svg PUBLIC "-//W3C//DTD SVG 20010904//EN"
 "http://www.w3.org/TR/2001/REC-SVG-20010904/DTD/svg10.dtd">
<svg version="1.0" xmlns="http://www.w3.org/2000/svg"
 width="100.000000pt" height="100.000000pt" viewBox="0 0 100.000000 100.000000"
 preserveAspectRatio="xMidYMid meet">
<metadata>
Created by potrace 1.11, written by Peter Selinger 2001-2013
</metadata>
<g transform="translate(0.000000,100.000000) scale(0.100000,-0.100000)"
fill="#000000" stroke="none">
<path d="M329 657 c-73 -18 -103 -70 -114 -197 -5 -58 -9 -68 -40 -95 -42 -37
-52 -64 -50 -135 2 -38 -2 -61 -13 -73 -18 -20 -8 -34 28 -39 22 -3 26 -9 30
-53 l5 -50 348 -3 348 -2 -3 22 c-2 16 -9 22 -20 20 -14 -2 -18 4 -18 30 0 29
4 34 27 36 37 3 49 17 32 38 -8 10 -14 42 -14 84 -1 74 -19 113 -60 132 -13 6
-23 18 -23 27 3 57 -25 186 -45 212 -36 46 -61 51 -226 53 -87 1 -174 -2 -192
-7z m389 -572 l3 -30 -218 0 -218 0 -3 31 -3 31 218 -1 218 -1 3 -30z"/>
<path d="M946 35 c-6 -17 17 -31 34 -20 5 3 10 13 10 21 0 19 -36 18 -44 -1z"/>
</g>
</svg>
